<svg xmlns="http://www.w3.org/2000/svg" width="32" height="32" viewBox="0 0 16 16"><circle fill="#5865F2" cx="8" cy="8" r="8"/><path fill="#fff" text-anchor="middle" dominant-baseline="middle" d="M11.73 4.815a8.58 8.58 0 0 0-2.118-.658.033.033 0 0 0-.034.017 5.93 5.93 0 0 0-.263.541 7.93 7.93 0 0 0-2.378 0 5.2 5.2 0 0 0-.268-.541.033.033 0 0 0-.034-.017 8.539 8.539 0 0 0-2.117.658.026.026 0 0 0-.013.011c-1.349 2.015-1.718 3.98-1.537 5.92q.002.014.014.024a8.645 8.645 0 0 0 2.596 1.313.033.033 0 0 0 .037-.012q.3-.41.531-.864a.033.033 0 0 0-.006-.039l-.012-.007a5.85 5.85 0 0 1-.811-.387.033.033 0 0 1-.013-.042l.01-.013q.082-.062.161-.127a.033.033 0 0 1 .033-.004c1.702.777 3.545.777 5.227 0a.033.033 0 0 1 .034.004q.079.065.161.127a.033.033 0 0 1-.002.055 5.2 5.2 0 0 1-.812.387.033.033 0 0 0-.02.019.033.033 0 0 0 .002.027c.156.302.335.59.531.864a.033.033 0 0 0 .037.012 8.58 8.58 0 0 0 2.6-1.313.033.033 0 0 0 .014-.024c.217-2.243-.363-4.192-1.538-5.92a.02.02 0 0 0-.013-.011m-5.328 4.75c-.513 0-.935-.471-.935-1.049s.414-1.048.935-1.048c.524 0 .942.474.934 1.048 0 .578-.414 1.048-.934 1.048m3.455 0c-.512 0-.935-.47-.935-1.048s.414-1.048.935-1.048c.525 0 .943.474.935 1.048 0 .578-.41 1.048-.935 1.048"/></svg>