<svg xmlns="http://www.w3.org/2000/svg" width="32" height="32" viewBox="0 0 16 16"><defs><linearGradient id="a" x1="100%" y1="0%" x2="0%" y2="100%"><stop offset="0%" style="stop-color:#ff6968"/><stop offset="50%" style="stop-color:#a334fa"/><stop offset="100%" style="stop-color:#0695ff"/></linearGradient></defs><circle fill="#fff" cx="8" cy="8" r="6"/><path fill="url(#a)" d="M0 7.76C0 3.301 3.493 0 8 0s8 3.301 8 7.76-3.493 7.76-8 7.76c-.81 0-1.586-.107-2.316-.307a.64.64 0 0 0-.427.03l-1.588.702a.64.64 0 0 1-.898-.566l-.044-1.423a.64.64 0 0 0-.215-.456C.956 12.108 0 10.092 0 7.76m5.546-1.459-2.35 3.728c-.225.358.214.761.551.506l2.525-1.916a.48.48 0 0 1 .578-.002l1.869 1.402a1.2 1.2 0 0 0 1.735-.32l2.35-3.728c.226-.358-.214-.761-.551-.506L9.728 7.381a.48.48 0 0 1-.578.002L7.281 5.98a1.2 1.2 0 0 0-1.735.32z"/></svg>